{
    "asset" : {
        "generator" : "Khronos glTF Blender I/O v1.5.17",
        "version" : "2.0"
    },
    "scene" : 0,
    "scenes" : [
        {
            "name" : "Scene",
            "nodes" : [
                0
            ]
        }
    ],
    "nodes" : [
        {
            "mesh" : 0,
            "name" : "MOCKUP_MASSA_DOCE",
            "rotation" : [
                0.7071067690849304,
                0,
                0,
                0.7071068286895752
            ]
        }
    ],
    "materials" : [
        {
            "doubleSided" : true,
            "name" : "Burggeman_MassaDoce",
            "pbrMetallicRoughness" : {
                "baseColorTexture" : {
                    "index" : 0
                },
                "metallicFactor" : 0.5,
                "roughnessFactor" : 0.30000001192092896
            }
        }
    ],
    "meshes" : [
        {
            "name" : "MOCKUP_MASSA_DOCE",
            "primitives" : [
                {
                    "attributes" : {
                        "POSITION" : 0,
                        "NORMAL" : 1,
                        "TEXCOORD_0" : 2
                    },
                    "indices" : 3,
                    "material" : 0
                }
            ]
        }
    ],
    "textures" : [
        {
            "sampler" : 0,
            "source" : 0
        }
    ],
    "images" : [
        {
            "bufferView" : 4,
            "mimeType" : "image/png",
            "name" : "package_Mat Layer Stack_baseColor"
        }
    ],
    "accessors" : [
        {
            "bufferView" : 0,
            "componentType" : 5126,
            "count" : 3301,
            "max" : [
                0.17327700555324554,
                0.12261101603507996,
                0.2203715294599533
            ],
            "min" : [
                -0.14963679015636444,
                -0.12649081647396088,
                -0.3585774898529053
            ],
            "type" : "VEC3"
        },
        {
            "bufferView" : 1,
            "componentType" : 5126,
            "count" : 3301,
            "type" : "VEC3"
        },
        {
            "bufferView" : 2,
            "componentType" : 5126,
            "count" : 3301,
            "type" : "VEC2"
        },
        {
            "bufferView" : 3,
            "componentType" : 5123,
            "count" : 15849,
            "type" : "SCALAR"
        }
    ],
    "bufferViews" : [
        {
            "buffer" : 0,
            "byteLength" : 39612,
            "byteOffset" : 0
        },
        {
            "buffer" : 0,
            "byteLength" : 39612,
            "byteOffset" : 39612
        },
        {
            "buffer" : 0,
            "byteLength" : 26408,
            "byteOffset" : 79224
        },
        {
            "buffer" : 0,
            "byteLength" : 31698,
            "byteOffset" : 105632
        },
        {
            "buffer" : 0,
            "byteLength" : 2168436,
            "byteOffset" : 137332
        }
    ],
    "samplers" : [
        {
            "magFilter" : 9729,
            "minFilter" : 9987
        }
    ],
    "buffers" : [
        {
            "byteLength" : 2305768,
            "uri" : "data:application/octet-stream;base64,"
        }
    ]
}
